# xmcd
#
# Track frame offsets:
#	150
#	15500
#	31342
#	47707
#	64642
#	85252
#	103328
#	120662
#	136829
#	145334
#	161726
#	177476
#	193407
#	209621
#	224169
#	238431
#	252537
#	265197
#	282744
#
# Disc length: 3962 seconds
#
# Revision: 1
# Processed by: cddbd v1.5.2PL0 Copyright (c) Steve Scherf et al.
# Submitted via: audiograbber 1.83.01
#
DISCID=3a0f7813
DTITLE=Various Artist - CDX 639
DYEAR=2016
DGENRE=Country
TTITLE0=Jon Pardi - Dirt On My Boots
TTITLE1=David Nail ft. Brothers Osborne - Good At Tonight 
TTITLE2=Brandy Clark - Love Can Go To Hell 
TTITLE3=Luke Combs - Hurricane
TTITLE4=Zane Williams - Bringin' Country Back
TTITLE5=Ray Stevens - Dear America
TTITLE6=Robby Johnson - Together
TTITLE7=The Runaway Hamsters - A Little Country
TTITLE8=Professor and The Bull - Bull Dance
TTITLE9=Penny Jayne Black - California
TTITLE10=Casey Donahew - Kiss Me 
TTITLE11=Robbie Robinson - Make A Wish
TTITLE12=Dan Washburn - Miles On A Rocking Chair
TTITLE13=James Robert Webb - Put It In Drive
TTITLE14=Casey Chapman - Skin
TTITLE15=Professor and The Bull - Tennessee Honey Whiskey
TTITLE16=Jamie Stever - This Life Ain't For Everyone
TTITLE17=Tucker - What I Can Change
TTITLE18=Tim Elliott - What's Not To Love
EXTD=
EXTT0=
EXTT1=
EXTT2=
EXTT3=
EXTT4=
EXTT5=
EXTT6=
EXTT7=
EXTT8=
EXTT9=
EXTT10=
EXTT11=
EXTT12=
EXTT13=
EXTT14=
EXTT15=
EXTT16=
EXTT17=
EXTT18=
PLAYORDER=
